<svg id="Layer_1" data-name="Layer 1" xmlns="http://www.w3.org/2000/svg" viewBox="0 0 540 102.72"><defs><style>.cls-1{fill:#fff;}.cls-2{fill:#f15a2c;}.cls-3{fill:#f58766;}</style></defs><path class="cls-1" d="M130.11,25.86c-16.49,0-27.88,11.39-27.88,27.17s11.39,27.05,27.88,27.05a26.51,26.51,0,0,0,14.2-3.66.06.06,0,0,0,0-.06V64.42a.06.06,0,0,0-.1,0,21.86,21.86,0,0,1-12.71,3.85c-10.2,0-16.25-5.82-16.25-15.19s6.17-15.3,16.25-15.3a21.67,21.67,0,0,1,12.71,4,.06.06,0,0,0,.1,0V29.58a.07.07,0,0,0,0-.06A26.51,26.51,0,0,0,130.11,25.86Z"/><path class="cls-1" d="M174,25.86c-16.13,0-27.52,11.28-27.52,27.17S157.89,80.08,174,80.08s27.41-11.15,27.41-27S190,25.86,174,25.86Zm0,42.59c-8.78,0-14.47-6.05-14.47-15.42S165.24,37.49,174,37.49,188.38,43.66,188.38,53,182.8,68.45,174,68.45Z"/><path class="cls-1" d="M234.93,25.86a19.89,19.89,0,0,0-17.35,9,.07.07,0,0,1-.12,0l-.58-7.51a.06.06,0,0,0-.06-.05H206.53a.07.07,0,0,0-.07.06V78.59a.07.07,0,0,0,.07.07h12.68a.07.07,0,0,0,.06-.07V46.64a0,0,0,0,1,0,0c2.73-5.57,6.64-8.76,12.09-8.76q8.55,0,8.54,10.32V78.59a.07.07,0,0,0,.07.07h12.68a.07.07,0,0,0,.07-.07V46.51C252.73,33,246.44,25.86,234.93,25.86Z"/><path class="cls-1" d="M291.83,27.29a.07.07,0,0,0-.07,0L279.5,60.45a.06.06,0,0,1-.12,0L267.12,27.33a.05.05,0,0,0-.06,0H253.44a.06.06,0,0,0-.06.09l20.23,51.23a.07.07,0,0,0,.06,0H284.5a.07.07,0,0,0,.06,0l20.23-51.23a.06.06,0,0,0-.06-.09Z"/><path class="cls-1" d="M329.69,25.86c-16.14,0-26.58,10.56-26.58,26.82,0,17,11.51,27.4,29.9,27.4,7.46,0,13.5-1.77,18.71-5.2a.06.06,0,0,0,0-.06V63a.06.06,0,0,0-.1,0,26.23,26.23,0,0,1-17.45,6.2c-9.93,0-16.09-4.25-17.66-11.9a.07.07,0,0,1,.07-.09H354a.07.07,0,0,0,.07-.06A52.24,52.24,0,0,0,354.6,50C354.6,35.35,344.87,25.86,329.69,25.86Zm12.85,22H316.61a.07.07,0,0,1-.07-.09c1.44-7.06,6.06-10.94,13.15-10.94s11.83,3.88,12.92,10.95A.08.08,0,0,1,342.54,47.81Z"/><path class="cls-1" d="M369.88,36s-.11,0-.12,0l-.93-8.67a.07.07,0,0,0-.07-.05H358.47a.07.07,0,0,0-.07.06V78.59a.07.07,0,0,0,.07.07h12.68a.07.07,0,0,0,.07-.07V49.34c2.49-7,7.24-10.31,14-10.31a22.57,22.57,0,0,1,3.91.36V26.22a14.79,14.79,0,0,0-3.56-.36C378.51,25.86,373.43,29,369.88,36Z"/><path class="cls-1" d="M392.87,63.59c0,10.91,5.81,16.49,17,16.49a20.16,20.16,0,0,0,10.65-2.59.07.07,0,0,0,0-.06V66a.07.07,0,0,0-.1-.06,14.35,14.35,0,0,1-7.73,2.44c-4.75,0-7-2.38-7-7.36V38a.07.07,0,0,1,.07-.06h14.69a.07.07,0,0,0,.07-.07V27.35a.07.07,0,0,0-.07-.06H405.75a.07.07,0,0,1-.07-.07V14a.06.06,0,0,0-.1-.06H393.06a.06.06,0,0,0,0,.06"/><rect class="cls-1" x="425.56" y="27.29" width="12.81" height="51.37" rx="0.07"/><path class="cls-1" d="M430.31,7.07a7.6,7.6,0,0,0-6.41,7.81,8,8,0,0,0,16,.55A8.21,8.21,0,0,0,430.31,7.07Z"/><path class="cls-1" d="M459.34,67.86a.07.07,0,0,1,0-.11l26.35-31.31a.06.06,0,0,0,0,0v-9a.07.07,0,0,0-.07-.06H444.91a.07.07,0,0,0-.07.06V38a.07.07,0,0,0,.07.06h23.75a.07.07,0,0,1,0,.11L442.37,69.62a.08.08,0,0,0,0,0v8.93a.07.07,0,0,0,.07.07h43.76a.07.07,0,0,0,.06-.07V67.93a.07.07,0,0,0-.06-.07Z"/><path class="cls-1" d="M515.09,25.86c-16.14,0-26.58,10.56-26.58,26.82,0,17,11.51,27.4,29.9,27.4,7.46,0,13.5-1.77,18.71-5.2a.06.06,0,0,0,0-.06V63a.06.06,0,0,0-.1,0,26.24,26.24,0,0,1-17.46,6.2c-9.92,0-16.08-4.25-17.65-11.9a.07.07,0,0,1,.07-.09h37.34a.07.07,0,0,0,.07-.06A52.24,52.24,0,0,0,540,50C540,35.35,530.27,25.86,515.09,25.86Zm12.85,22H502a.07.07,0,0,1-.07-.09c1.44-7.06,6.06-10.94,13.15-10.94S526.91,40.66,528,47.73A.06.06,0,0,1,527.94,47.81Z"/><path class="cls-2" d="M15.86,88.47c-.23-.21-.45-.42-.66-.65C15.41,88,15.63,88.26,15.86,88.47Z"/><path class="cls-2" d="M91,79.86a11.16,11.16,0,0,1-3.09,7.71l-.08.08-.3.29s0,0,0,0a51.51,51.51,0,0,1-71.82.36L15,87.67A11.18,11.18,0,0,1,30.9,71.93l.2.19a29.16,29.16,0,0,0,40.71,0s0,0,0,0l.24-.23.06-.06A11.18,11.18,0,0,1,91,79.86Z"/><path class="cls-3" d="M22.34,51.36a29.06,29.06,0,0,1,8-20.09A11.17,11.17,0,0,1,15.11,15l.07-.07,0,0a51.5,51.5,0,0,0,0,72.94A11.17,11.17,0,0,1,31,72.08,29.05,29.05,0,0,1,22.34,51.36Z"/><path class="cls-2" d="M71.61,30.59l.2.2A11.18,11.18,0,0,0,88.26,15.73c-.19-.23-.39-.46-.59-.68s-.44-.44-.67-.65A51.32,51.32,0,0,0,51.28,0h0A51.35,51.35,0,0,0,15.19,14.76h0l-.3.29-.08.09A11.17,11.17,0,0,0,30.05,31.42a6.17,6.17,0,0,0,.54-.48l.06-.06c.08-.08.16-.15.23-.23h0a29,29,0,0,1,19.59-8.29h.79A29,29,0,0,1,71.61,30.59Z"/></svg>